<?xml version="1.0" encoding="UTF-8"?>
<svg version="1.1" xmlns="http://www.w3.org/2000/svg" width="466" height="96">
<path d="M0 0 C6.60068734 0.24501394 6.60068734 0.24501394 9.54882812 2.47387695 C12.68469266 6.19938211 14.68076351 10.56850088 16.71875 14.96118164 C18.33316033 18.25945519 20.3771421 21.19707142 22.47314453 24.20336914 C23.2922904 25.4163673 24.10855752 26.63131308 24.92236328 27.84790039 C25.36499512 28.50870605 25.80762695 29.16951172 26.26367188 29.8503418 C31.34866316 37.50311501 36.33140612 45.22432228 41.34033203 52.92700195 C42.47909602 54.67131138 43.63013614 56.40760656 44.78564453 58.14086914 C45.11564453 39.33086914 45.44564453 20.52086914 45.78564453 1.14086914 C52.38564453 1.14086914 58.98564453 1.14086914 65.78564453 1.14086914 C65.80819442 12.85814045 65.82655896 24.57539746 65.8374567 36.29268551 C65.84268581 41.73289226 65.84978396 47.17308345 65.86108398 52.61328125 C65.87191188 57.85872616 65.87792116 63.10415606 65.88052177 68.34961128 C65.8823762 70.3555786 65.88599715 72.36154506 65.89137459 74.36750603 C65.89858372 77.16689738 65.89963553 79.96622593 65.89916992 82.765625 C65.9027652 83.60359619 65.90636047 84.44156738 65.9100647 85.30493164 C65.89969669 91.02681698 65.89969669 91.02681698 64.78564453 92.14086914 C58.33394918 94.00608419 52.06221749 95.0653383 45.78564453 92.14086914 C38.98239407 85.53169753 34.44580167 76.84276224 29.81542969 68.64428711 C26.76181296 63.28621504 23.25082433 58.23885364 19.78564453 53.14086914 C14.78564453 45.53928643 14.78564453 45.53928643 14.78564453 43.14086914 C14.12564453 43.14086914 13.46564453 43.14086914 12.78564453 43.14086914 C12.12564453 41.16086914 11.46564453 39.18086914 10.78564453 37.14086914 C10.12564453 37.14086914 9.46564453 37.14086914 8.78564453 37.14086914 C8.45564453 36.15086914 8.12564453 35.16086914 7.78564453 34.14086914 C7.45564453 53.28086914 7.12564453 72.42086914 6.78564453 92.14086914 C0.51564453 92.14086914 -5.75435547 92.14086914 -12.21435547 92.14086914 C-14.03432453 90.32090008 -13.34076138 87.8019727 -13.34988403 85.37950134 C-13.3478598 84.55245193 -13.34583557 83.72540253 -13.34375 82.87329102 C-13.34550232 82.0066835 -13.34725464 81.14007599 -13.34906006 80.24720764 C-13.35347972 77.36799141 -13.35054019 74.48883605 -13.34716797 71.60961914 C-13.34784098 69.61804187 -13.34881097 67.62646468 -13.35006714 65.6348877 C-13.35154427 61.45507019 -13.34938908 57.27527402 -13.34472656 53.09545898 C-13.33902927 47.72484388 -13.34230819 42.35427874 -13.34829903 36.98366547 C-13.35190424 32.86944194 -13.35076624 28.75523035 -13.34817123 24.64100647 C-13.34750185 22.66016128 -13.34833077 20.67931502 -13.35065079 18.69847107 C-13.35317666 15.93510039 -13.34933765 13.1718118 -13.34375 10.40844727 C-13.34577423 9.58139786 -13.34779846 8.75434845 -13.34988403 7.90223694 C-13.31552207 -1.22239828 -8.02847351 0.22658168 0 0 Z " fill="#7D103E" transform="translate(399.21435546875,2.859130859375)"/>
<path d="M0 0 C6.86845739 -0.05079385 13.73686615 -0.08577306 20.60546875 -0.10986328 C22.94109914 -0.11990831 25.276717 -0.13354677 27.61230469 -0.15087891 C30.97333881 -0.17519277 34.33420634 -0.18649827 37.6953125 -0.1953125 C38.73615997 -0.20563507 39.77700745 -0.21595764 40.84939575 -0.22659302 C45.97016379 -0.2273819 50.21027059 -0.0629386 55 2 C55 2.66 55 3.32 55 4 C55.556875 4.0825 56.11375 4.165 56.6875 4.25 C60.54693977 5.5017102 63.00103362 7.44497466 65.20703125 10.87890625 C68.60713504 17.59501233 69.20912159 24.18618466 67.375 31.48828125 C65.10335169 37.52234709 61.39980502 40.65788767 56 44 C57.051875 44.515625 58.10375 45.03125 59.1875 45.5625 C64.8839609 48.81432586 67.92938762 53.87897919 70 60 C71.11066769 68.26570586 70.01039678 75.23114666 65 82 C56.41574918 90.34195342 47.06441546 91.15722334 35.60546875 91.1328125 C34.61750809 91.13376923 33.62954742 91.13472595 32.61164856 91.13571167 C30.53317196 91.1363899 28.4546932 91.13456059 26.3762207 91.13037109 C23.1811047 91.12498923 19.98612745 91.13034275 16.79101562 91.13671875 C14.77083302 91.13605846 12.7506505 91.13477833 10.73046875 91.1328125 C9.77013229 91.13483673 8.80979584 91.13686096 7.82035828 91.13894653 C6.93886612 91.13579437 6.05737396 91.13264221 5.14916992 91.12939453 C3.98051643 91.12820114 3.98051643 91.12820114 2.78825378 91.12698364 C1 91 1 91 0 90 C-0.09519368 87.2001028 -0.12553944 84.42493826 -0.11352539 81.62475586 C-0.11367142 80.74678848 -0.11381744 79.86882111 -0.1139679 78.96424866 C-0.11326844 76.04775565 -0.10547455 73.13132567 -0.09765625 70.21484375 C-0.09579218 68.19845108 -0.09436823 66.18205796 -0.09336853 64.16566467 C-0.08954244 58.84734862 -0.07971139 53.5290597 -0.06866455 48.21075439 C-0.05845238 42.78829312 -0.05387133 37.36582748 -0.04882812 31.94335938 C-0.0380892 21.29556097 -0.02101169 10.64778274 0 0 Z M20 16 C20 22.93 20 29.86 20 37 C23.17625 37.0825 26.3525 37.165 29.625 37.25 C31.1092749 37.30462402 31.1092749 37.30462402 32.62353516 37.36035156 C38.25795762 37.43096692 41.59081997 36.86672571 46 33 C48.48386059 29.27420911 48.3804212 27.41288598 48 23 C46.30098911 19.17722551 44.85102285 17.5310164 41 16 C38.58507548 15.72692179 38.58507548 15.72692179 36.015625 15.8046875 C35.17290039 15.80968262 34.33017578 15.81467773 33.46191406 15.81982422 C32.40198242 15.83803223 31.34205078 15.85624023 30.25 15.875 C26.8675 15.91625 23.485 15.9575 20 16 Z M20 52 C20 59.59 20 67.18 20 75 C35.04282076 76.07702169 35.04282076 76.07702169 48.5625 70.9375 C50.55038453 66.87530118 50.93397079 63.43636123 50 59 C47.16034912 55.18675453 44.5088956 53.33487041 40 52 C36.55730498 51.76261095 33.13617773 51.81211971 29.6875 51.875 C26.490625 51.91625 23.29375 51.9575 20 52 Z " fill="#790838" transform="translate(1,4)"/>
<path d="M0 0 C6.28048223 -0.05087933 12.56091091 -0.08580874 18.84155273 -0.10986328 C20.97633857 -0.11989563 23.11111074 -0.13352464 25.24584961 -0.15087891 C28.32148619 -0.1752489 31.39694043 -0.186511 34.47265625 -0.1953125 C35.89494286 -0.21079636 35.89494286 -0.21079636 37.34596252 -0.22659302 C42.63491053 -0.22748035 46.99595293 0.26077017 52 2 C52 2.66 52 3.32 52 4 C53.10794922 4.11601562 53.10794922 4.11601562 54.23828125 4.234375 C57.68564585 5.19008004 58.87856489 6.55252069 61.1875 9.25 C61.86167969 10.01828125 62.53585938 10.7865625 63.23046875 11.578125 C67.81630346 17.85454336 68.5636573 25.70341079 67.75390625 33.3125 C65.8789604 41.80782988 61.97262222 46.45427911 55.31640625 51.6171875 C52.84235764 53.09410691 50.83721691 53.60969503 48 54 C49.03284177 55.76165287 50.06589423 57.52318248 51.09985352 59.28417969 C51.99823655 60.81433308 52.89584935 62.34493892 53.79272461 63.87597656 C56.03956132 67.70283662 58.30433616 71.51513468 60.6328125 75.29296875 C61.04217041 75.96062256 61.45152832 76.62827637 61.87329102 77.31616211 C62.64883493 78.57731657 63.43031158 79.8348476 64.21850586 81.08813477 C66.23128302 84.37150919 67.53098376 87.16128245 68 91 C49.41915511 92.62310834 49.41915511 92.62310834 44.2578125 89.16015625 C42.44630327 86.51802413 41.21292951 83.96272945 40 81 C39.0150908 79.19999353 38.01492395 77.40825512 37 75.625 C36.52304688 74.72136719 36.04609375 73.81773438 35.5546875 72.88671875 C33.2764868 68.65659232 30.79427003 64.55150141 28.3203125 60.43359375 C27 58 27 58 27 56 C24.69 56 22.38 56 20 56 C20.00785522 57.53708618 20.00785522 57.53708618 20.01586914 59.10522461 C20.03391969 62.89395276 20.0454322 66.68267709 20.05493164 70.47143555 C20.05997174 72.11369464 20.06680378 73.75594923 20.07543945 75.39819336 C20.08751926 77.75375479 20.09323139 80.10925709 20.09765625 82.46484375 C20.10281754 83.20339096 20.10797882 83.94193817 20.11329651 84.7028656 C20.1134925 86.46898088 20.06194719 88.23497146 20 90 C18.4779041 91.5220959 17.11789918 91.12959521 15 91.1328125 C14.195625 91.13410156 13.39125 91.13539062 12.5625 91.13671875 C11.716875 91.13285156 10.87125 91.12898438 10 91.125 C9.154375 91.12886719 8.30875 91.13273437 7.4375 91.13671875 C6.633125 91.13542969 5.82875 91.13414063 5 91.1328125 C4.2575 91.13168457 3.515 91.13055664 2.75 91.12939453 C1 91 1 91 0 90 C-0.09519368 87.2001028 -0.12553944 84.42493826 -0.11352539 81.62475586 C-0.11367142 80.74678848 -0.11381744 79.86882111 -0.1139679 78.96424866 C-0.11326844 76.04775565 -0.10547455 73.13132567 -0.09765625 70.21484375 C-0.09579218 68.19845108 -0.09436823 66.18205796 -0.09336853 64.16566467 C-0.08954244 58.84734862 -0.07971139 53.5290597 -0.06866455 48.21075439 C-0.05845238 42.78829312 -0.05387133 37.36582748 -0.04882812 31.94335938 C-0.0380892 21.29556097 -0.02101169 10.64778274 0 0 Z M20 16 C20 24.25 20 32.5 20 41 C23.01125 41.0825 26.0225 41.165 29.125 41.25 C30.06230957 41.28641602 30.99961914 41.32283203 31.96533203 41.36035156 C37.5015014 41.43345966 40.61058179 40.69203401 45 37 C47.27085168 35.15175355 47.27085168 35.15175355 47.265625 32.3203125 C47.26046875 31.26585937 47.2553125 30.21140625 47.25 29.125 C47.25515625 28.07570313 47.2603125 27.02640625 47.265625 25.9453125 C46.93743627 22.14706532 46.93743627 22.14706532 45 19 C39.48662801 15.842406 34.80940116 15.61773319 28.5625 15.8125 C24.3240625 15.9053125 24.3240625 15.9053125 20 16 Z " fill="#7B0D3C" transform="translate(176,4)"/>
<path d="M0 0 C6.27 0 12.54 0 19 0 C19 12.21 19 24.42 19 37 C31.21 37 43.42 37 56 37 C56 24.79 56 12.58 56 0 C62.27 0 68.54 0 75 0 C75 30.03 75 60.06 75 91 C68.73 91 62.46 91 56 91 C56 78.46 56 65.92 56 53 C43.79 53 31.58 53 19 53 C19 65.54 19 78.08 19 91 C12.73 91 6.46 91 0 91 C0 60.97 0 30.94 0 0 Z " fill="#790436" transform="translate(259,4)"/>
<path d="M0 0 C0.9583374 0.00523682 1.9166748 0.01047363 2.90405273 0.01586914 C4.45576172 0.02070312 4.45576172 0.02070312 6.03881836 0.02563477 C7.12743164 0.03401367 8.21604492 0.04239258 9.33764648 0.05102539 C10.97636719 0.05779297 10.97636719 0.05779297 12.64819336 0.06469727 C15.35723144 0.07652713 18.06616248 0.09300996 20.77514648 0.11352539 C20.9569043 0.75418945 21.13866211 1.39485352 21.32592773 2.05493164 C22.83776223 7.25719289 24.59283858 12.14708756 26.77514648 17.11352539 C27.90976332 20.15836493 28.96702969 23.22888807 30.02514648 26.30102539 C30.32960693 27.17686279 30.63406738 28.0527002 30.94775391 28.95507812 C32.17573178 32.48792464 33.39835894 36.02260669 34.61938477 39.55786133 C35.43985508 41.93138227 36.26298086 44.30395895 37.08764648 46.67602539 C37.36398926 47.47250488 37.64033203 48.26898438 37.92504883 49.08959961 C39.68747628 54.12776867 41.5231065 59.13396103 43.40405273 64.12915039 C44.08504028 65.94177368 44.08504028 65.94177368 44.77978516 67.79101562 C45.67586831 70.16795881 46.57812612 72.54258572 47.48730469 74.91455078 C47.89940186 76.00759521 48.31149902 77.10063965 48.73608398 78.22680664 C49.10523926 79.19400635 49.47439453 80.16120605 49.85473633 81.15771484 C50.77514648 84.11352539 50.77514648 84.11352539 51.77514648 91.11352539 C45.17514648 91.11352539 38.57514648 91.11352539 31.77514648 91.11352539 C29.6188544 85.79467159 27.5918755 80.56371243 25.77514648 75.11352539 C14.55514648 75.11352539 3.33514648 75.11352539 -8.22485352 75.11352539 C-10.20485352 80.39352539 -12.18485352 85.67352539 -14.22485352 91.11352539 C-20.82485352 91.11352539 -27.42485352 91.11352539 -34.22485352 91.11352539 C-32.93596879 83.64477761 -30.86483671 76.96925962 -28.09985352 69.92602539 C-25.00320659 61.86475419 -22.02046145 53.78416118 -19.22485352 45.61352539 C-16.07546296 36.43382637 -12.73414113 27.33772912 -9.28149414 18.26782227 C-7.33554507 13.14337198 -5.48655668 8.01523873 -3.83154297 2.78881836 C-2.92763028 0.2927826 -2.72248431 0.1389175 0 0 Z M7.77514648 25.11352539 C6.50063798 28.73724349 5.2312307 32.36272951 3.96264648 35.98852539 C3.6062207 37.00172852 3.24979492 38.01493164 2.88256836 39.05883789 C2.53129883 40.06430664 2.1800293 41.06977539 1.81811523 42.10571289 C1.49866943 43.01691895 1.17922363 43.928125 0.85009766 44.86694336 C-0.60198088 49.25253054 -1.89738382 53.68862639 -3.22485352 58.11352539 C4.69514648 58.11352539 12.61514648 58.11352539 20.77514648 58.11352539 C17.14514648 47.22352539 13.51514648 36.33352539 9.77514648 25.11352539 C9.11514648 25.11352539 8.45514648 25.11352539 7.77514648 25.11352539 Z " fill="#7B0C3B" transform="translate(113.224853515625,3.886474609375)"/>
<path d="M0 0 C6.27 0 12.54 0 19 0 C19 30.03 19 60.06 19 91 C12.73 91 6.46 91 0 91 C0 60.97 0 30.94 0 0 Z " fill="#770034" transform="translate(351,4)"/>
<path d="M0 0 C6.27 0 12.54 0 19 0 C19 30.03 19 60.06 19 91 C12.73 91 6.46 91 0 91 C0 60.97 0 30.94 0 0 Z M2 2 C2 30.71 2 59.42 2 89 C6.95 89 11.9 89 17 89 C17 60.62 17 32.24 17 3 C10.47612297 0.39044919 9.26694017 0.96186569 2 2 Z " fill="#803150" transform="translate(351,4)"/>
<path d="M0 0 C6.27 0 12.54 0 19 0 C19 30.03 19 60.06 19 91 C12.73 91 6.46 91 0 91 C-0.08985463 77.61166022 0.14500758 64.35925651 1 51 C3 53 3 53 3.22705078 56.53173828 C3.22673363 58.04463331 3.21540633 59.55755088 3.1953125 61.0703125 C3.1924826 61.86654022 3.18965271 62.66276794 3.18673706 63.48312378 C3.1755264 66.03056763 3.15042062 68.57766211 3.125 71.125 C3.11497133 72.85025535 3.10584528 74.57551619 3.09765625 76.30078125 C3.07558422 80.53398914 3.04104867 84.7669353 3 89 C9.435 88.505 9.435 88.505 16 88 C16 59.95 16 31.9 16 3 C6.26710519 2.18010841 6.26710519 2.18010841 3 4 C3.01571045 4.92337158 3.0314209 5.84674316 3.04760742 6.7980957 C3.09874832 10.22539889 3.13635535 13.65229642 3.16479492 17.07983398 C3.17987768 18.56297199 3.20034689 20.04606544 3.22631836 21.52905273 C3.26272616 23.66140745 3.27973073 25.79317235 3.29296875 27.92578125 C3.3086792 29.20880127 3.32438965 30.49182129 3.34057617 31.8137207 C3 35 3 35 0 38 C0 25.46 0 12.92 0 0 Z " fill="#6B1437" transform="translate(315,4)"/>
<path d="M0 0 C16.17 0 32.34 0 49 0 C49 0.33 49 0.66 49 1 C33.49 1 17.98 1 2 1 C2 30.04 2 59.08 2 89 C16.85 89 31.7 89 47 89 C46.67 89.66 46.34 90.32 46 91 C39.60962769 91.02527062 33.21926817 91.04283317 26.82885742 91.05493164 C24.65307127 91.05997308 22.47728853 91.06680607 20.30151367 91.07543945 C17.18146933 91.08751338 14.06146962 91.09323005 10.94140625 91.09765625 C9.47266808 91.10539818 9.47266808 91.10539818 7.97425842 91.11329651 C7.07340012 91.11337204 6.17254181 91.11344757 5.24438477 91.11352539 C4.04858543 91.11685631 4.04858543 91.11685631 2.82862854 91.12025452 C1 91 1 91 0 90 C-0.09519368 87.2001028 -0.12553944 84.42493826 -0.11352539 81.62475586 C-0.11367142 80.74678848 -0.11381744 79.86882111 -0.1139679 78.96424866 C-0.11326844 76.04775565 -0.10547455 73.13132567 -0.09765625 70.21484375 C-0.09579218 68.19845108 -0.09436823 66.18205796 -0.09336853 64.16566467 C-0.08954244 58.84734862 -0.07971139 53.5290597 -0.06866455 48.21075439 C-0.05665825 41.83564566 -0.05204862 35.46052787 -0.04621124 29.08541107 C-0.03649968 19.39025516 -0.01734375 9.69515881 0 0 Z " fill="#975571" transform="translate(1,4)"/>
<path d="M0 0 C0.33 0 0.66 0 1 0 C1.0154612 1.58733696 1.0154612 1.58733696 1.03123474 3.20674133 C1.1288968 13.16869483 1.23162407 23.13058486 1.33933926 33.09243488 C1.39455602 38.21418916 1.4479741 43.33594915 1.49731445 48.45776367 C1.5449763 53.39852613 1.59731988 58.33921864 1.65294075 63.27989769 C1.67335603 65.16696626 1.69207048 67.054054 1.70907402 68.94115639 C1.73313625 71.57973806 1.76318844 74.21818744 1.79467773 76.85668945 C1.8004332 77.6407164 1.80618866 78.42474335 1.81211853 79.23252869 C1.85537429 82.41115956 1.9875822 84.96274659 3 88 C7.95 88.33 12.9 88.66 18 89 C18 77.45 18 65.9 18 54 C18.33 54 18.66 54 19 54 C19 65.88 19 77.76 19 90 C12.73 90 6.46 90 0 90 C0 60.3 0 30.6 0 0 Z " fill="#732A46" transform="translate(259,5)"/>
<path d="M0 0 C1.60279192 0.00015914 3.20558896 0.00585476 4.80834961 0.01586914 C5.65038437 0.01728409 6.49241913 0.01869904 7.35997009 0.02015686 C10.06024671 0.02577276 12.76044163 0.03832791 15.46069336 0.05102539 C17.28686404 0.05603834 19.11303602 0.06060161 20.93920898 0.06469727 C25.42556878 0.07574735 29.9118672 0.0930226 34.39819336 0.11352539 C34.39819336 0.44352539 34.39819336 0.77352539 34.39819336 1.11352539 C22.18819336 1.11352539 9.97819336 1.11352539 -2.60180664 1.11352539 C-2.93180664 13.65352539 -3.26180664 26.19352539 -3.60180664 39.11352539 C-9.21180664 39.11352539 -14.82180664 39.11352539 -20.60180664 39.11352539 C-20.60180664 38.78352539 -20.60180664 38.45352539 -20.60180664 38.11352539 C-19.6027832 38.06454102 -18.60375977 38.01555664 -17.57446289 37.96508789 C-16.28411133 37.89032227 -14.99375977 37.81555664 -13.66430664 37.73852539 C-12.3765332 37.66891602 -11.08875977 37.59930664 -9.76196289 37.52758789 C-8.19768555 37.32262695 -8.19768555 37.32262695 -6.60180664 37.11352539 C-5.07804871 34.06600953 -5.382784 30.86319789 -5.32055664 27.51586914 C-5.30214722 26.76640518 -5.28373779 26.01694122 -5.26477051 25.24476624 C-5.18596561 22.03181439 -5.11820595 18.81865119 -5.04956055 15.60546875 C-4.99795269 13.26299283 -4.94066601 10.92070387 -4.88305664 8.57836914 C-4.8694812 7.84609604 -4.85590576 7.11382294 -4.84191895 6.35935974 C-4.68788966 0.14775766 -4.68788966 0.14775766 0 0 Z " fill="#61072A" transform="translate(280.601806640625,54.886474609375)"/>
<path d="M0 0 C5.94 0 11.88 0 18 0 C18 12.21 18 24.42 18 37 C17.01 36.34 16.02 35.68 15 35 C15.66 35 16.32 35 17 35 C16.67 23.78 16.34 12.56 16 1 C12.7 1.33 9.4 1.66 6 2 C5.34 3.32 4.68 4.64 4 6 C3.01 6.33 2.02 6.66 1 7 C0.67 4.69 0.34 2.38 0 0 Z " fill="#6B0A2F" transform="translate(259,4)"/>
<path d="M0 0 C6.13809036 -0.04959611 12.27606293 -0.08581249 18.41430664 -0.10986328 C20.50059034 -0.11989427 22.58686008 -0.13352226 24.6730957 -0.15087891 C27.67923438 -0.17525494 30.68518645 -0.18651236 33.69140625 -0.1953125 C34.61772354 -0.20563507 35.54404083 -0.21595764 36.49842834 -0.22659302 C41.73480568 -0.22749151 46.04364493 0.28559352 51 2 C51 2.66 51 3.32 51 4 C48.03 3.67 45.06 3.34 42 3 C42 2.34 42 1.68 42 1 C28.14 1 14.28 1 0 1 C0 0.67 0 0.34 0 0 Z " fill="#6F203F" transform="translate(177,4)"/>
<path d="M0 0 C1.5 1.3125 1.5 1.3125 3 3 C3 3.99 3 4.98 3 6 C-3.6 6 -10.2 6 -17 6 C-16.67 4.35 -16.34 2.7 -16 1 C-15.67 1.99 -15.34 2.98 -15 4 C-10.05 4 -5.1 4 0 4 C0 2.68 0 1.36 0 0 Z " fill="#7A344F" transform="translate(162,89)"/>
<path d="M0 0 C0.33 0.99 0.66 1.98 1 3 C3.01508358 3.73323796 3.01508358 3.73323796 5 4 C5 5.32 5 6.64 5 8 C5.97850195 9.02104551 6.97980427 10.0206121 8 11 C8.6875 13.1875 8.6875 13.1875 9 15 C8.01 15 7.02 15 6 15 C3.69 10.38 1.38 5.76 -1 1 C-0.67 0.67 -0.34 0.34 0 0 Z " fill="#823051" transform="translate(208,66)"/>
<path d="M0 0 C5.94 0 11.88 0 18 0 C18 0.99 18 1.98 18 3 C12.06 3 6.12 3 0 3 C0 2.01 0 1.02 0 0 Z " fill="#793650" transform="translate(177,92)"/>
<path d="M0 0 C0.99 0 1.98 0 3 0 C2.875 1.8125 2.875 1.8125 2 4 C-2.08931064 6.66280693 -5.16039934 7.34568576 -10 7 C-10 6.34 -10 5.68 -10 5 C-9.16855469 4.70996094 -9.16855469 4.70996094 -8.3203125 4.4140625 C-7.59585938 4.15367188 -6.87140625 3.89328125 -6.125 3.625 C-5.04605469 3.24214844 -5.04605469 3.24214844 -3.9453125 2.8515625 C-1.81842006 2.06122217 -1.81842006 2.06122217 0 0 Z " fill="#832F4F" transform="translate(221,40)"/>
<path d="M0 0 C2 1 2 1 2.78125 3.0390625 C3.0184375 3.89242188 3.255625 4.74578125 3.5 5.625 C3.75394531 6.5221875 4.00789062 7.419375 4.26953125 8.34375 C4.51058594 9.2203125 4.75164062 10.096875 5 11 C5.39468129 12.37533113 5.79032681 13.75038642 6.1875 15.125 C6.455625 16.07375 6.72375 17.0225 7 18 C6.34 18.66 5.68 19.32 5 20 C4.67 18.02 4.34 16.04 4 14 C3.34 14 2.68 14 2 14 C1.77213542 11.94921875 1.54427083 9.8984375 1.31640625 7.84765625 C1.18113386 5.98859771 1.18113386 5.98859771 0 5 C-0.04063832 3.33382885 -0.042721 1.66611905 0 0 Z " fill="#96506C" transform="translate(136,14)"/>
<path d="M0 0 C1.32 0.33 2.64 0.66 4 1 C4 1.99 4 2.98 4 4 C4.66 4 5.32 4 6 4 C8 7 8 7 8 10 C8.66 10 9.32 10 10 10 C10.33 11.98 10.66 13.96 11 16 C7.62631319 12.92486954 5.49098038 9.71481144 3.25 5.75 C2.63640625 4.67234375 2.0228125 3.5946875 1.390625 2.484375 C0.93171875 1.66453125 0.4728125 0.8446875 0 0 Z " fill="#95526B" transform="translate(425,64)"/>
<path d="M0 0 C1.32 0 2.64 0 4 0 C4 0.66 4 1.32 4 2 C4.66 2.33 5.32 2.66 6 3 C3.69 4.65 1.38 6.3 -1 8 C-1.66 7.67 -2.32 7.34 -3 7 C-3 6.34 -3 5.68 -3 5 C-2.34 4.67 -1.68 4.34 -1 4 C-0.34786708 1.97536745 -0.34786708 1.97536745 0 0 Z " fill="#913A5C" transform="translate(59,84)"/>
<path d="M0 0 C1.64528614 3.12752591 2.91702499 6.3053057 4.125 9.625 C4.47820312 10.58664063 4.83140625 11.54828125 5.1953125 12.5390625 C6 15 6 15 6 17 C5.34 17 4.68 17 4 17 C1.84694043 13.14243493 0.60746746 10.44870215 1 6 C0.34 6 -0.32 6 -1 6 C-0.67 4.02 -0.34 2.04 0 0 Z " fill="#8C4963" transform="translate(147,43)"/>
<path d="M0 0 C0.33 1.32 0.66 2.64 1 4 C1.66 4 2.32 4 3 4 C2.67 5.32 2.34 6.64 2 8 C1.34 8 0.68 8 0 8 C-0.103125 8.639375 -0.20625 9.27875 -0.3125 9.9375 C-0.539375 10.618125 -0.76625 11.29875 -1 12 C-1.99 12.33 -2.98 12.66 -4 13 C-3.52140759 11.39566191 -3.04210442 9.79153584 -2.5625 8.1875 C-2.29566406 7.29417969 -2.02882813 6.40085937 -1.75390625 5.48046875 C-1.19612127 3.64526945 -0.60655425 1.81966274 0 0 Z " fill="#8F3E5D" transform="translate(98,38)"/>
<path d="M0 0 C0.98150241 2.94450722 1.1613058 4.93518979 1 8 C0.67 8.33 0.34 8.66 0 9 C-0.36760731 11.32817964 -0.70241581 13.6618385 -1 16 C-1.99 15.34 -2.98 14.68 -4 14 C-3.00956295 9.16371695 -2.04301154 4.52381127 0 0 Z " fill="#9E5A73" transform="translate(84,77)"/>
<path d="M0 0 C1.25955231 3.77865693 0.48087189 5.03411786 -0.9375 8.6875 C-1.31777344 9.68136719 -1.69804688 10.67523438 -2.08984375 11.69921875 C-2.39019531 12.45847656 -2.69054687 13.21773437 -3 14 C-3.66 13.34 -4.32 12.68 -5 12 C-4.73314868 7.33010192 -2.37159913 3.90166308 0 0 Z " fill="#954D69" transform="translate(120,29)"/>
<path d="M0 0 C1.88671875 0.25390625 1.88671875 0.25390625 4 1 C5.08203125 2.77734375 5.08203125 2.77734375 5.8125 4.9375 C6.06644531 5.64777344 6.32039063 6.35804687 6.58203125 7.08984375 C7 9 7 9 6 11 C5.34 9.35 4.68 7.7 4 6 C3.34 6 2.68 6 2 6 C1.34 4.02 0.68 2.04 0 0 Z " fill="#8B425F" transform="translate(410,40)"/>
<path d="M0 0 C1.32 0 2.64 0 4 0 C4 2.64 4 5.28 4 8 C3.01 8.33 2.02 8.66 1 9 C1 7.68 1 6.36 1 5 C0.34 4.67 -0.32 4.34 -1 4 C-0.34 4 0.32 4 1 4 C0.67 2.68 0.34 1.36 0 0 Z " fill="#6D072E" transform="translate(65,60)"/>
<path d="M0 0 C5.77807024 -0.2358396 10.51324804 0.13216954 16 2 C16 2.66 16 3.32 16 4 C13.03 3.67 10.06 3.34 7 3 C7 2.34 7 1.68 7 1 C4.69 1 2.38 1 0 1 C0 0.67 0 0.34 0 0 Z " fill="#8C4C64" transform="translate(212,4)"/>
<path d="M0 0 C0.33 1.32 0.66 2.64 1 4 C-3.32734391 6.22923777 -6.28400182 5.92470553 -11 5 C-11 4.67 -11 4.34 -11 4 C-10.37351563 3.87882812 -9.74703125 3.75765625 -9.1015625 3.6328125 C-8.28429688 3.46523437 -7.46703125 3.29765625 -6.625 3.125 C-5.81289063 2.96257812 -5.00078125 2.80015625 -4.1640625 2.6328125 C-1.81326077 2.13341068 -1.81326077 2.13341068 0 0 Z " fill="#AB7186" transform="translate(49,74)"/>
<path d="M0 0 C4.66154042 1.49835228 5.86610751 4.88463591 8 9 C4.68470727 8.01437243 3.25050621 7.34552581 1.1875 4.5 C0 2 0 2 0 0 Z " fill="#8E4463" transform="translate(61,51)"/>
<path d="M0 0 C2.29633824 3.44450737 2.54016485 5.93812283 3 10 C2.01 10.66 1.02 11.32 0 12 C0 8.04 0 4.08 0 0 Z " fill="#66092E" transform="translate(224,27)"/>
<path d="M0 0 C0.66 0.33 1.32 0.66 2 1 C2 1.66 2 2.32 2 3 C2.66 3 3.32 3 4 3 C4 3.99 4 4.98 4 6 C2.35 6 0.7 6 -1 6 C-1.042721 4.33388095 -1.04063832 2.66617115 -1 1 C-0.67 0.67 -0.34 0.34 0 0 Z " fill="#7B1E44" transform="translate(409,34)"/>
<path d="M0 0 C2.625 0.375 2.625 0.375 5 1 C5.33 2.32 5.66 3.64 6 5 C4 4 4 4 2 2 C2 2.66 2 3.32 2 4 C0.68 3.34 -0.64 2.68 -2 2 C-1.34 1.34 -0.68 0.68 0 0 Z " fill="#6F0330" transform="translate(233,83)"/>
<path d="M0 0 C2 2 2 2 2.25 5.375 C2.02515633 8.63523324 1.7239511 10.30632641 0 13 C-1.29676812 8.38926889 -0.71109139 4.66159911 0 0 Z " fill="#7F2E49" transform="translate(69,62)"/>
<path d="M0 0 C1.32 0 2.64 0 4 0 C3.67 1.65 3.34 3.3 3 5 C1.68 5 0.36 5 -1 5 C-0.67 3.35 -0.34 1.7 0 0 Z " fill="#6D0831" transform="translate(105,22)"/>
<path d="M0 0 C0.99 0 1.98 0 3 0 C3 0.66 3 1.32 3 2 C1.03852126 3.38938077 -0.96166576 4.7260411 -3 6 C-3.66 5.67 -4.32 5.34 -5 5 C-4.67 4.01 -4.34 3.02 -4 2 C-2.68 2 -1.36 2 0 2 C0 1.34 0 0.68 0 0 Z " fill="#90405D" transform="translate(232,51)"/>
<path d="M0 0 C2.375 0.1875 2.375 0.1875 5 1 C6.3125 3.5625 6.3125 3.5625 7 6 C6.01 5.67 5.02 5.34 4 5 C2.66893378 4.65772583 1.33599921 4.32248257 0 4 C0 2.68 0 1.36 0 0 Z " fill="#6F042E" transform="translate(56,50)"/>
<path d="M0 0 C0.99 0 1.98 0 3 0 C3 0.66 3 1.32 3 2 C3.61875 2.12375 4.2375 2.2475 4.875 2.375 C7 3 7 3 9 5 C7.35 5.33 5.7 5.66 4 6 C3.71125 5.195625 3.4225 4.39125 3.125 3.5625 C2.26737432 0.8673532 2.26737432 0.8673532 0 0 Z " fill="#974C68" transform="translate(53,6)"/>
<path d="M0 0 C1.875 0.125 1.875 0.125 4 1 C5.25 4.0625 5.25 4.0625 6 7 C5.01 7 4.02 7 3 7 C0 2.77777778 0 2.77777778 0 0 Z " fill="#8C4260" transform="translate(211,74)"/>
<path d="M0 0 C0.66 0.33 1.32 0.66 2 1 C2 3.97 2 6.94 2 10 C1.34 10 0.68 10 0 10 C-1.125 2.25 -1.125 2.25 0 0 Z " fill="#71032E" transform="translate(132,45)"/>
<path d="M0 0 C2.0625 0.4375 2.0625 0.4375 4 1 C3.01 1.495 3.01 1.495 2 2 C1.34786708 4.02463255 1.34786708 4.02463255 1 6 C0.01 5.67 -0.98 5.34 -2 5 C-1.125 1.125 -1.125 1.125 0 0 Z " fill="#6B052D" transform="translate(236,44)"/>
<path d="M0 0 C3.08089673 2.77280706 4.68775452 5.06326356 6 9 C4.68 8.34 3.36 7.68 2 7 C2 6.34 2 5.68 2 5 C1.34 4.67 0.68 4.34 0 4 C0 2.68 0 1.36 0 0 Z " fill="#8B445D" transform="translate(425,34)"/>
<path d="M0 0 C0.33 0.99 0.66 1.98 1 3 C1.66 3.33 2.32 3.66 3 4 C1.68 5.65 0.36 7.3 -1 9 C-2.25541557 5.23375329 -1.37061958 3.62811066 0 0 Z " fill="#8F4263" transform="translate(101,30)"/>
<path d="M0 0 C3.08089673 2.77280706 4.68775452 5.06326356 6 9 C3.5625 7.875 3.5625 7.875 1 6 C0.1875 2.8125 0.1875 2.8125 0 0 Z " fill="#9E5C78" transform="translate(418,23)"/>
<path d="M0 0 C1.32 0 2.64 0 4 0 C4.33 1.32 4.66 2.64 5 4 C3.68 4.33 2.36 4.66 1 5 C0.67 3.35 0.34 1.7 0 0 Z " fill="#86395A" transform="translate(403,4)"/>
<path d="M0 0 C0.66 0.33 1.32 0.66 2 1 C0.25 6.75 0.25 6.75 -2 9 C-2.20140476 5.37471432 -1.85776765 3.13498292 0 0 Z " fill="#883F5E" transform="translate(66,33)"/>
</svg>